<svg xmlns="http://www.w3.org/2000/svg" xmlns:xlink="http://www.w3.org/1999/xlink" width="500" zoomAndPan="magnify" viewBox="0 0 375 187.499995" height="250" preserveAspectRatio="xMidYMid meet" version="1.0"><defs><g/><clipPath id="5095d27266"><path d="M 0.5 22.628906 L 139.628906 22.628906 L 139.628906 164 L 0.5 164 Z M 0.5 22.628906 " clip-rule="nonzero"/></clipPath></defs><path fill="#bddbff" d="M 20.410156 93.316406 L 26.308594 93.316406 L 26.308594 53.445312 L 12.230469 53.445312 C 11.613281 53.445312 11.003906 53.503906 10.398438 53.625 C 9.792969 53.746094 9.207031 53.925781 8.636719 54.160156 C 8.070312 54.394531 7.527344 54.683594 7.015625 55.027344 C 6.503906 55.367188 6.03125 55.757812 5.59375 56.195312 C 5.15625 56.628906 4.769531 57.101562 4.425781 57.613281 C 4.085938 58.128906 3.796875 58.667969 3.558594 59.238281 C 3.324219 59.804688 3.144531 60.390625 3.023438 60.996094 C 2.90625 61.601562 2.84375 62.210938 2.84375 62.828125 L 2.84375 161.328125 L 11.113281 101.414062 C 11.191406 100.859375 11.316406 100.3125 11.492188 99.777344 C 11.664062 99.246094 11.886719 98.730469 12.152344 98.234375 C 12.421875 97.742188 12.730469 97.273438 13.082031 96.835938 C 13.433594 96.398438 13.820312 95.992188 14.242188 95.625 C 14.667969 95.253906 15.121094 94.925781 15.601562 94.640625 C 16.085938 94.351562 16.589844 94.109375 17.117188 93.914062 C 17.644531 93.714844 18.183594 93.566406 18.734375 93.464844 C 19.289062 93.367188 19.847656 93.316406 20.410156 93.316406 Z M 20.410156 93.316406 " fill-opacity="1" fill-rule="nonzero"/><path fill="#bddbff" d="M 101.386719 53.445312 L 124.847656 53.445312 L 96.691406 25.300781 L 96.691406 48.753906 C 96.691406 49.0625 96.722656 49.367188 96.78125 49.671875 C 96.84375 49.972656 96.933594 50.265625 97.050781 50.550781 C 97.167969 50.835938 97.3125 51.105469 97.484375 51.359375 C 97.65625 51.617188 97.847656 51.855469 98.066406 52.070312 C 98.285156 52.289062 98.523438 52.484375 98.777344 52.65625 C 99.035156 52.828125 99.304688 52.972656 99.589844 53.089844 C 99.875 53.207031 100.167969 53.296875 100.46875 53.355469 C 100.773438 53.414062 101.078125 53.445312 101.386719 53.445312 Z M 101.386719 53.445312 " fill-opacity="1" fill-rule="nonzero"/><path fill="#bddbff" d="M 136.589844 104.597656 C 136.660156 104.257812 136.710938 103.914062 136.742188 103.566406 C 136.777344 103.222656 136.789062 102.875 136.78125 102.527344 C 136.777344 102.183594 136.75 101.835938 136.707031 101.492188 C 136.660156 101.148438 136.597656 100.804688 136.515625 100.46875 C 136.433594 100.132812 136.332031 99.800781 136.210938 99.472656 C 136.09375 99.148438 135.957031 98.828125 135.800781 98.519531 C 135.648438 98.207031 135.476562 97.90625 135.289062 97.613281 C 135.097656 97.324219 134.894531 97.042969 134.675781 96.773438 C 134.457031 96.503906 134.222656 96.246094 133.976562 96.003906 C 133.726562 95.761719 133.46875 95.53125 133.195312 95.316406 C 132.921875 95.101562 132.636719 94.90625 132.339844 94.722656 C 132.046875 94.539062 131.742188 94.375 131.429688 94.222656 C 131.113281 94.074219 130.792969 93.945312 130.464844 93.832031 C 130.136719 93.71875 129.804688 93.621094 129.464844 93.546875 C 129.125 93.46875 128.785156 93.410156 128.4375 93.375 C 128.09375 93.335938 127.746094 93.316406 127.398438 93.316406 L 20.414062 93.316406 C 19.851562 93.316406 19.292969 93.367188 18.742188 93.464844 C 18.1875 93.566406 17.648438 93.714844 17.121094 93.914062 C 16.59375 94.109375 16.089844 94.351562 15.609375 94.640625 C 15.125 94.925781 14.671875 95.253906 14.25 95.625 C 13.824219 95.992188 13.4375 96.398438 13.085938 96.835938 C 12.734375 97.273438 12.425781 97.742188 12.160156 98.234375 C 11.890625 98.730469 11.671875 99.246094 11.496094 99.777344 C 11.320312 100.3125 11.195312 100.859375 11.117188 101.414062 L 2.84375 161.328125 L 124.847656 161.328125 Z M 136.589844 104.597656 " fill-opacity="1" fill-rule="nonzero"/><path fill="#bddbff" d="M 77.921875 58.136719 C 77.921875 58.75 77.894531 59.363281 77.832031 59.976562 C 77.773438 60.585938 77.683594 61.195312 77.5625 61.796875 C 77.441406 62.398438 77.292969 62.996094 77.113281 63.582031 C 76.9375 64.171875 76.730469 64.75 76.496094 65.316406 C 76.257812 65.882812 75.996094 66.4375 75.707031 66.980469 C 75.417969 67.523438 75.101562 68.050781 74.757812 68.558594 C 74.417969 69.070312 74.050781 69.5625 73.664062 70.039062 C 73.273438 70.515625 72.859375 70.96875 72.425781 71.402344 C 71.992188 71.835938 71.535156 72.25 71.0625 72.640625 C 70.585938 73.03125 70.09375 73.394531 69.582031 73.738281 C 69.070312 74.078125 68.542969 74.394531 68 74.683594 C 67.460938 74.972656 66.902344 75.234375 66.335938 75.46875 C 65.769531 75.707031 65.191406 75.914062 64.601562 76.089844 C 64.011719 76.269531 63.417969 76.417969 62.816406 76.539062 C 62.210938 76.65625 61.605469 76.75 60.992188 76.808594 C 60.382812 76.867188 59.769531 76.898438 59.152344 76.898438 C 58.539062 76.898438 57.925781 76.867188 57.3125 76.808594 C 56.703125 76.75 56.09375 76.65625 55.492188 76.539062 C 54.890625 76.417969 54.292969 76.269531 53.703125 76.089844 C 53.117188 75.914062 52.539062 75.707031 51.96875 75.46875 C 51.402344 75.234375 50.847656 74.972656 50.304688 74.683594 C 49.761719 74.394531 49.238281 74.078125 48.726562 73.738281 C 48.214844 73.394531 47.722656 73.03125 47.246094 72.640625 C 46.769531 72.25 46.316406 71.835938 45.882812 71.402344 C 45.445312 70.96875 45.035156 70.515625 44.644531 70.039062 C 44.253906 69.5625 43.886719 69.070312 43.546875 68.558594 C 43.207031 68.050781 42.890625 67.523438 42.601562 66.980469 C 42.308594 66.4375 42.046875 65.882812 41.8125 65.316406 C 41.578125 64.75 41.371094 64.171875 41.191406 63.582031 C 41.011719 62.996094 40.863281 62.398438 40.746094 61.796875 C 40.625 61.195312 40.535156 60.585938 40.472656 59.976562 C 40.414062 59.363281 40.382812 58.75 40.382812 58.136719 C 40.382812 57.523438 40.414062 56.910156 40.472656 56.296875 C 40.535156 55.6875 40.625 55.078125 40.746094 54.476562 C 40.863281 53.875 41.011719 53.277344 41.191406 52.691406 C 41.371094 52.101562 41.578125 51.523438 41.8125 50.957031 C 42.046875 50.386719 42.308594 49.832031 42.601562 49.292969 C 42.890625 48.75 43.207031 48.222656 43.546875 47.710938 C 43.886719 47.203125 44.253906 46.707031 44.644531 46.234375 C 45.035156 45.757812 45.445312 45.304688 45.882812 44.871094 C 46.316406 44.433594 46.769531 44.023438 47.246094 43.632812 C 47.722656 43.242188 48.214844 42.878906 48.726562 42.535156 C 49.238281 42.195312 49.761719 41.878906 50.304688 41.589844 C 50.847656 41.300781 51.402344 41.039062 51.96875 40.800781 C 52.539062 40.566406 53.117188 40.359375 53.703125 40.183594 C 54.292969 40.003906 54.890625 39.855469 55.492188 39.734375 C 56.09375 39.613281 56.703125 39.523438 57.3125 39.464844 C 57.925781 39.402344 58.539062 39.375 59.152344 39.375 C 59.769531 39.375 60.382812 39.402344 60.992188 39.464844 C 61.605469 39.523438 62.210938 39.613281 62.816406 39.734375 C 63.417969 39.855469 64.011719 40.003906 64.601562 40.183594 C 65.191406 40.359375 65.769531 40.566406 66.335938 40.800781 C 66.902344 41.039062 67.460938 41.300781 68 41.589844 C 68.542969 41.878906 69.070312 42.195312 69.582031 42.535156 C 70.09375 42.878906 70.585938 43.242188 71.0625 43.632812 C 71.535156 44.023438 71.992188 44.433594 72.425781 44.871094 C 72.859375 45.304688 73.273438 45.757812 73.664062 46.234375 C 74.050781 46.707031 74.417969 47.203125 74.757812 47.710938 C 75.101562 48.222656 75.417969 48.75 75.707031 49.292969 C 75.996094 49.832031 76.257812 50.386719 76.496094 50.957031 C 76.730469 51.523438 76.9375 52.101562 77.113281 52.691406 C 77.292969 53.277344 77.441406 53.875 77.5625 54.476562 C 77.683594 55.078125 77.773438 55.6875 77.832031 56.296875 C 77.894531 56.910156 77.921875 57.523438 77.921875 58.136719 Z M 77.921875 58.136719 " fill-opacity="1" fill-rule="nonzero"/><g clip-path="url(#5095d27266)"><path fill="#3d9ae2" d="M 136.496094 95.292969 C 135.945312 94.617188 135.328125 94.007812 134.644531 93.472656 C 133.960938 92.933594 133.222656 92.476562 132.4375 92.101562 C 131.648438 91.726562 130.832031 91.445312 129.980469 91.253906 C 129.132812 91.0625 128.269531 90.96875 127.398438 90.96875 L 127.191406 90.96875 L 127.191406 53.445312 C 127.191406 53.394531 127.167969 53.347656 127.164062 53.296875 C 127.152344 53.089844 127.109375 52.890625 127.042969 52.695312 C 127.015625 52.621094 127 52.546875 126.964844 52.476562 C 126.851562 52.21875 126.695312 51.988281 126.496094 51.789062 L 98.339844 23.644531 C 98.140625 23.445312 97.910156 23.289062 97.652344 23.175781 C 97.582031 23.140625 97.511719 23.125 97.4375 23.097656 C 97.238281 23.027344 97.035156 22.988281 96.824219 22.976562 C 96.785156 22.984375 96.742188 22.957031 96.691406 22.957031 L 35.691406 22.957031 C 34.921875 22.957031 34.160156 23.035156 33.402344 23.183594 C 32.648438 23.335938 31.914062 23.558594 31.203125 23.851562 C 30.492188 24.148438 29.816406 24.507812 29.175781 24.9375 C 28.539062 25.363281 27.945312 25.851562 27.402344 26.394531 C 26.855469 26.941406 26.371094 27.53125 25.941406 28.171875 C 25.515625 28.8125 25.152344 29.488281 24.855469 30.199219 C 24.5625 30.910156 24.339844 31.640625 24.1875 32.398438 C 24.039062 33.152344 23.960938 33.914062 23.960938 34.683594 L 23.960938 51.101562 L 12.230469 51.101562 C 11.460938 51.101562 10.695312 51.175781 9.941406 51.328125 C 9.1875 51.480469 8.453125 51.703125 7.742188 51.996094 C 7.03125 52.292969 6.355469 52.652344 5.714844 53.082031 C 5.074219 53.507812 4.484375 53.996094 3.9375 54.539062 C 3.394531 55.082031 2.90625 55.675781 2.480469 56.316406 C 2.050781 56.957031 1.691406 57.628906 1.394531 58.339844 C 1.101562 59.050781 0.878906 59.785156 0.726562 60.539062 C 0.574219 61.292969 0.5 62.058594 0.5 62.828125 L 0.5 161.328125 L 0.546875 161.328125 C 0.527344 161.910156 0.707031 162.421875 1.074219 162.871094 C 1.542969 163.40625 2.132812 163.675781 2.84375 163.675781 L 124.847656 163.675781 C 125.117188 163.675781 125.378906 163.628906 125.632812 163.539062 C 125.886719 163.449219 126.121094 163.316406 126.328125 163.144531 C 126.539062 162.976562 126.714844 162.773438 126.851562 162.542969 C 126.992188 162.3125 127.089844 162.0625 127.144531 161.796875 L 138.886719 105.066406 C 139.0625 104.214844 139.144531 103.351562 139.128906 102.480469 C 139.117188 101.613281 139.003906 100.753906 138.796875 99.910156 C 138.589844 99.0625 138.292969 98.25 137.90625 97.472656 C 137.515625 96.691406 137.046875 95.96875 136.496094 95.292969 Z M 119.183594 51.101562 L 101.386719 51.101562 C 101.074219 51.101562 100.773438 51.039062 100.488281 50.921875 C 100.199219 50.804688 99.945312 50.632812 99.726562 50.414062 C 99.503906 50.195312 99.335938 49.941406 99.21875 49.652344 C 99.097656 49.367188 99.039062 49.066406 99.039062 48.753906 L 99.039062 30.964844 Z M 28.652344 34.683594 C 28.652344 34.222656 28.699219 33.765625 28.789062 33.3125 C 28.878906 32.859375 29.011719 32.417969 29.1875 31.992188 C 29.367188 31.5625 29.582031 31.160156 29.839844 30.773438 C 30.097656 30.390625 30.386719 30.035156 30.714844 29.707031 C 31.042969 29.382812 31.398438 29.089844 31.78125 28.832031 C 32.164062 28.578125 32.570312 28.359375 32.996094 28.183594 C 33.425781 28.007812 33.863281 27.871094 34.316406 27.78125 C 34.773438 27.691406 35.230469 27.648438 35.691406 27.648438 L 94.347656 27.648438 L 94.347656 48.753906 C 94.347656 49.21875 94.390625 49.675781 94.480469 50.128906 C 94.570312 50.582031 94.707031 51.019531 94.882812 51.449219 C 95.058594 51.875 95.277344 52.28125 95.53125 52.664062 C 95.789062 53.046875 96.082031 53.402344 96.40625 53.730469 C 96.734375 54.058594 97.089844 54.347656 97.472656 54.605469 C 97.859375 54.863281 98.265625 55.078125 98.691406 55.253906 C 99.117188 55.433594 99.558594 55.566406 100.011719 55.65625 C 100.464844 55.746094 100.921875 55.789062 101.386719 55.789062 L 122.5 55.789062 L 122.5 90.96875 L 28.652344 90.96875 Z M 12.230469 55.789062 L 23.960938 55.789062 L 23.960938 90.96875 L 20.410156 90.96875 C 19.707031 90.972656 19.011719 91.039062 18.320312 91.164062 C 17.628906 91.292969 16.957031 91.480469 16.296875 91.726562 C 15.640625 91.972656 15.011719 92.277344 14.410156 92.636719 C 13.804688 92.996094 13.242188 93.40625 12.710938 93.867188 C 12.183594 94.332031 11.699219 94.835938 11.257812 95.382812 C 10.820312 95.929688 10.433594 96.511719 10.097656 97.128906 C 9.761719 97.746094 9.484375 98.386719 9.265625 99.054688 C 9.046875 99.71875 8.886719 100.398438 8.789062 101.09375 L 5.191406 127.160156 L 5.191406 62.828125 C 5.191406 62.363281 5.234375 61.90625 5.328125 61.453125 C 5.417969 61 5.550781 60.5625 5.726562 60.132812 C 5.902344 59.707031 6.121094 59.300781 6.378906 58.917969 C 6.632812 58.535156 6.925781 58.179688 7.253906 57.851562 C 7.578125 57.523438 7.933594 57.234375 8.320312 56.976562 C 8.703125 56.71875 9.109375 56.503906 9.535156 56.328125 C 9.964844 56.148438 10.402344 56.015625 10.855469 55.925781 C 11.308594 55.835938 11.765625 55.789062 12.230469 55.789062 Z M 134.289062 104.121094 L 122.9375 158.984375 L 5.535156 158.984375 L 13.4375 101.734375 C 13.496094 101.320312 13.589844 100.910156 13.722656 100.511719 C 13.855469 100.109375 14.019531 99.726562 14.222656 99.355469 C 14.421875 98.984375 14.65625 98.636719 14.917969 98.308594 C 15.183594 97.980469 15.472656 97.675781 15.789062 97.398438 C 16.109375 97.125 16.449219 96.878906 16.808594 96.660156 C 17.171875 96.445312 17.546875 96.261719 17.941406 96.113281 C 18.335938 95.964844 18.742188 95.855469 19.15625 95.777344 C 19.570312 95.703125 19.988281 95.664062 20.410156 95.660156 L 127.394531 95.660156 C 127.917969 95.660156 128.433594 95.71875 128.941406 95.832031 C 129.453125 95.949219 129.945312 96.117188 130.414062 96.34375 C 130.886719 96.566406 131.328125 96.839844 131.738281 97.164062 C 132.152344 97.484375 132.523438 97.851562 132.851562 98.253906 C 133.179688 98.660156 133.460938 99.097656 133.695312 99.566406 C 133.929688 100.03125 134.105469 100.519531 134.230469 101.027344 C 134.355469 101.535156 134.421875 102.050781 134.429688 102.570312 C 134.441406 103.09375 134.390625 103.613281 134.285156 104.121094 Z M 134.289062 104.121094 " fill-opacity="1" fill-rule="nonzero"/></g><path fill="#3d9ae2" d="M 59.152344 51.101562 C 59.464844 51.101562 59.765625 51.160156 60.050781 51.277344 C 60.339844 51.398438 60.59375 51.566406 60.8125 51.789062 C 61.03125 52.007812 61.203125 52.261719 61.320312 52.546875 C 61.441406 52.835938 61.5 53.132812 61.5 53.445312 L 66.191406 53.445312 C 66.1875 52.71875 66.078125 52.011719 65.855469 51.324219 C 65.632812 50.632812 65.3125 49.992188 64.890625 49.402344 C 64.472656 48.808594 63.972656 48.296875 63.394531 47.859375 C 62.816406 47.421875 62.183594 47.082031 61.5 46.839844 L 61.5 44.066406 L 56.808594 44.066406 L 56.808594 46.839844 C 56.125 47.082031 55.492188 47.421875 54.914062 47.859375 C 54.335938 48.296875 53.835938 48.808594 53.414062 49.402344 C 52.996094 49.992188 52.675781 50.632812 52.453125 51.324219 C 52.230469 52.011719 52.117188 52.71875 52.113281 53.445312 C 52.113281 57.242188 55.578125 58.972656 58.105469 60.234375 C 60.09375 61.226562 61.5 61.996094 61.5 62.828125 C 61.5 63.136719 61.441406 63.4375 61.320312 63.722656 C 61.203125 64.011719 61.03125 64.265625 60.8125 64.484375 C 60.59375 64.707031 60.339844 64.875 60.050781 64.992188 C 59.765625 65.113281 59.464844 65.171875 59.152344 65.171875 C 58.84375 65.171875 58.542969 65.113281 58.253906 64.992188 C 57.96875 64.875 57.714844 64.707031 57.496094 64.484375 C 57.273438 64.265625 57.105469 64.011719 56.984375 63.722656 C 56.867188 63.4375 56.808594 63.136719 56.808594 62.828125 L 52.113281 62.828125 C 52.117188 63.550781 52.230469 64.257812 52.453125 64.949219 C 52.675781 65.640625 52.996094 66.28125 53.414062 66.871094 C 53.835938 67.464844 54.335938 67.976562 54.914062 68.414062 C 55.492188 68.851562 56.125 69.191406 56.808594 69.429688 L 56.808594 72.207031 L 61.5 72.207031 L 61.5 69.429688 C 62.183594 69.191406 62.816406 68.851562 63.394531 68.414062 C 63.972656 67.976562 64.472656 67.464844 64.890625 66.871094 C 65.3125 66.28125 65.632812 65.640625 65.855469 64.949219 C 66.078125 64.257812 66.1875 63.550781 66.191406 62.828125 C 66.191406 59.03125 62.730469 57.300781 60.203125 56.039062 C 58.214844 55.046875 56.808594 54.277344 56.808594 53.445312 C 56.808594 53.132812 56.867188 52.835938 56.984375 52.546875 C 57.105469 52.261719 57.273438 52.007812 57.496094 51.789062 C 57.714844 51.566406 57.96875 51.398438 58.253906 51.277344 C 58.542969 51.160156 58.84375 51.101562 59.152344 51.101562 Z M 59.152344 51.101562 " fill-opacity="1" fill-rule="nonzero"/><path fill="#3d9ae2" d="M 59.152344 37.027344 C 58.460938 37.027344 57.773438 37.0625 57.082031 37.128906 C 56.394531 37.199219 55.710938 37.300781 55.035156 37.433594 C 54.355469 37.570312 53.6875 37.738281 53.023438 37.9375 C 52.363281 38.136719 51.710938 38.371094 51.074219 38.636719 C 50.433594 38.898438 49.808594 39.195312 49.199219 39.519531 C 48.589844 39.847656 47.996094 40.203125 47.421875 40.585938 C 46.847656 40.96875 46.292969 41.382812 45.757812 41.820312 C 45.222656 42.257812 44.710938 42.722656 44.222656 43.210938 C 43.734375 43.699219 43.269531 44.210938 42.832031 44.746094 C 42.390625 45.28125 41.980469 45.835938 41.597656 46.410156 C 41.210938 46.984375 40.855469 47.578125 40.53125 48.1875 C 40.203125 48.796875 39.910156 49.421875 39.644531 50.058594 C 39.378906 50.699219 39.148438 51.347656 38.945312 52.007812 C 38.746094 52.671875 38.578125 53.339844 38.445312 54.019531 C 38.308594 54.695312 38.207031 55.378906 38.140625 56.066406 C 38.070312 56.753906 38.039062 57.445312 38.039062 58.136719 C 38.039062 58.828125 38.070312 59.515625 38.140625 60.207031 C 38.207031 60.894531 38.308594 61.574219 38.445312 62.253906 C 38.578125 62.933594 38.746094 63.601562 38.945312 64.261719 C 39.148438 64.925781 39.378906 65.574219 39.644531 66.214844 C 39.910156 66.851562 40.203125 67.476562 40.53125 68.085938 C 40.855469 68.695312 41.210938 69.289062 41.597656 69.863281 C 41.980469 70.4375 42.390625 70.992188 42.832031 71.527344 C 43.269531 72.0625 43.734375 72.574219 44.222656 73.0625 C 44.710938 73.550781 45.222656 74.015625 45.757812 74.453125 C 46.292969 74.890625 46.847656 75.300781 47.421875 75.6875 C 47.996094 76.070312 48.589844 76.425781 49.199219 76.75 C 49.808594 77.078125 50.433594 77.371094 51.074219 77.636719 C 51.710938 77.902344 52.363281 78.132812 53.023438 78.335938 C 53.6875 78.535156 54.355469 78.703125 55.035156 78.839844 C 55.710938 78.972656 56.394531 79.074219 57.082031 79.140625 C 57.773438 79.210938 58.460938 79.242188 59.152344 79.242188 C 59.84375 79.242188 60.535156 79.210938 61.222656 79.140625 C 61.910156 79.074219 62.59375 78.972656 63.273438 78.839844 C 63.949219 78.703125 64.621094 78.535156 65.28125 78.335938 C 65.945312 78.132812 66.59375 77.902344 67.234375 77.636719 C 67.871094 77.371094 68.496094 77.078125 69.105469 76.75 C 69.71875 76.425781 70.308594 76.070312 70.882812 75.6875 C 71.460938 75.300781 72.015625 74.890625 72.550781 74.453125 C 73.082031 74.015625 73.59375 73.550781 74.085938 73.0625 C 74.574219 72.574219 75.039062 72.0625 75.476562 71.527344 C 75.914062 70.992188 76.328125 70.4375 76.710938 69.863281 C 77.09375 69.289062 77.449219 68.695312 77.777344 68.085938 C 78.101562 67.476562 78.398438 66.851562 78.660156 66.214844 C 78.925781 65.574219 79.160156 64.925781 79.359375 64.261719 C 79.5625 63.601562 79.726562 62.933594 79.863281 62.253906 C 80 61.574219 80.101562 60.894531 80.167969 60.207031 C 80.234375 59.515625 80.269531 58.828125 80.269531 58.136719 C 80.269531 57.445312 80.234375 56.753906 80.164062 56.066406 C 80.097656 55.378906 79.996094 54.699219 79.859375 54.019531 C 79.722656 53.34375 79.554688 52.671875 79.355469 52.011719 C 79.152344 51.351562 78.917969 50.699219 78.65625 50.0625 C 78.390625 49.425781 78.09375 48.800781 77.769531 48.191406 C 77.441406 47.582031 77.085938 46.988281 76.703125 46.414062 C 76.316406 45.839844 75.90625 45.285156 75.46875 44.753906 C 75.03125 44.21875 74.566406 43.707031 74.078125 43.21875 C 73.589844 42.730469 73.078125 42.265625 72.542969 41.828125 C 72.007812 41.390625 71.453125 40.976562 70.878906 40.59375 C 70.304688 40.210938 69.710938 39.855469 69.101562 39.527344 C 68.492188 39.203125 67.867188 38.90625 67.230469 38.640625 C 66.589844 38.378906 65.941406 38.144531 65.28125 37.941406 C 64.617188 37.742188 63.949219 37.574219 63.269531 37.4375 C 62.59375 37.304688 61.910156 37.199219 61.222656 37.132812 C 60.535156 37.0625 59.84375 37.03125 59.152344 37.027344 Z M 59.152344 74.554688 C 58.617188 74.554688 58.078125 74.527344 57.542969 74.472656 C 57.007812 74.421875 56.476562 74.34375 55.949219 74.238281 C 55.421875 74.132812 54.902344 74.003906 54.386719 73.847656 C 53.871094 73.691406 53.367188 73.507812 52.867188 73.304688 C 52.371094 73.097656 51.886719 72.867188 51.410156 72.613281 C 50.9375 72.363281 50.476562 72.085938 50.027344 71.785156 C 49.582031 71.488281 49.148438 71.167969 48.734375 70.828125 C 48.320312 70.484375 47.921875 70.125 47.539062 69.746094 C 47.160156 69.363281 46.800781 68.96875 46.457031 68.550781 C 46.117188 68.136719 45.796875 67.703125 45.496094 67.257812 C 45.199219 66.808594 44.921875 66.347656 44.667969 65.875 C 44.414062 65.402344 44.1875 64.914062 43.980469 64.417969 C 43.773438 63.921875 43.59375 63.417969 43.4375 62.902344 C 43.28125 62.386719 43.152344 61.867188 43.046875 61.339844 C 42.941406 60.8125 42.863281 60.28125 42.808594 59.746094 C 42.757812 59.210938 42.730469 58.675781 42.730469 58.136719 C 42.730469 57.597656 42.757812 57.0625 42.808594 56.527344 C 42.863281 55.992188 42.941406 55.460938 43.046875 54.933594 C 43.152344 54.40625 43.28125 53.886719 43.4375 53.371094 C 43.59375 52.855469 43.773438 52.351562 43.980469 51.855469 C 44.1875 51.355469 44.414062 50.871094 44.667969 50.398438 C 44.921875 49.921875 45.199219 49.460938 45.496094 49.015625 C 45.796875 48.566406 46.117188 48.136719 46.457031 47.722656 C 46.800781 47.304688 47.160156 46.90625 47.539062 46.527344 C 47.921875 46.148438 48.320312 45.785156 48.734375 45.445312 C 49.148438 45.105469 49.582031 44.785156 50.027344 44.484375 C 50.476562 44.1875 50.9375 43.910156 51.410156 43.65625 C 51.886719 43.402344 52.371094 43.175781 52.867188 42.96875 C 53.367188 42.761719 53.871094 42.582031 54.386719 42.425781 C 54.902344 42.269531 55.421875 42.140625 55.949219 42.035156 C 56.476562 41.929688 57.007812 41.851562 57.542969 41.796875 C 58.078125 41.746094 58.617188 41.71875 59.152344 41.71875 C 59.691406 41.71875 60.226562 41.746094 60.761719 41.796875 C 61.296875 41.851562 61.828125 41.929688 62.355469 42.035156 C 62.886719 42.140625 63.40625 42.269531 63.921875 42.425781 C 64.433594 42.582031 64.941406 42.761719 65.4375 42.96875 C 65.933594 43.175781 66.421875 43.402344 66.894531 43.65625 C 67.371094 43.910156 67.832031 44.1875 68.277344 44.484375 C 68.726562 44.785156 69.15625 45.105469 69.570312 45.445312 C 69.988281 45.785156 70.386719 46.148438 70.765625 46.527344 C 71.148438 46.90625 71.507812 47.304688 71.847656 47.722656 C 72.191406 48.136719 72.511719 48.566406 72.808594 49.015625 C 73.109375 49.460938 73.382812 49.921875 73.636719 50.398438 C 73.890625 50.871094 74.121094 51.355469 74.328125 51.855469 C 74.53125 52.351562 74.714844 52.855469 74.871094 53.371094 C 75.027344 53.886719 75.15625 54.40625 75.261719 54.933594 C 75.367188 55.460938 75.445312 55.992188 75.496094 56.527344 C 75.550781 57.0625 75.578125 57.597656 75.578125 58.136719 C 75.574219 58.671875 75.550781 59.210938 75.496094 59.746094 C 75.441406 60.28125 75.363281 60.8125 75.257812 61.335938 C 75.152344 61.863281 75.023438 62.386719 74.867188 62.898438 C 74.707031 63.414062 74.527344 63.917969 74.320312 64.414062 C 74.117188 64.914062 73.886719 65.398438 73.632812 65.871094 C 73.378906 66.34375 73.101562 66.804688 72.804688 67.253906 C 72.503906 67.699219 72.183594 68.128906 71.84375 68.546875 C 71.5 68.960938 71.140625 69.359375 70.761719 69.738281 C 70.378906 70.121094 69.984375 70.480469 69.566406 70.820312 C 69.152344 71.164062 68.71875 71.480469 68.273438 71.78125 C 67.828125 72.078125 67.367188 72.355469 66.890625 72.609375 C 66.417969 72.863281 65.933594 73.09375 65.433594 73.296875 C 64.9375 73.503906 64.433594 73.6875 63.917969 73.84375 C 63.402344 74 62.882812 74.128906 62.355469 74.234375 C 61.828125 74.339844 61.296875 74.417969 60.761719 74.472656 C 60.226562 74.527344 59.691406 74.554688 59.152344 74.554688 Z M 59.152344 74.554688 " fill-opacity="1" fill-rule="nonzero"/><path fill="#3d9ae2" d="M 84.960938 74.554688 L 89.652344 74.554688 L 89.652344 79.242188 L 84.960938 79.242188 Z M 84.960938 74.554688 " fill-opacity="1" fill-rule="nonzero"/><path fill="#3d9ae2" d="M 94.347656 74.554688 L 113.117188 74.554688 L 113.117188 79.242188 L 94.347656 79.242188 Z M 94.347656 74.554688 " fill-opacity="1" fill-rule="nonzero"/><path fill="#3d9ae2" d="M 84.960938 65.171875 L 99.039062 65.171875 L 99.039062 69.863281 L 84.960938 69.863281 Z M 84.960938 65.171875 " fill-opacity="1" fill-rule="nonzero"/><path fill="#3d9ae2" d="M 103.730469 65.171875 L 113.117188 65.171875 L 113.117188 69.863281 L 103.730469 69.863281 Z M 103.730469 65.171875 " fill-opacity="1" fill-rule="nonzero"/><g fill="#3d9ae2" fill-opacity="1"><g transform="translate(155.507821, 125.077449)"><g><path d="M 5.21875 -55.171875 L 29.1875 -55.171875 C 34.957031 -55.171875 40.070312 -54.019531 44.53125 -51.71875 C 49 -49.414062 52.476562 -46.207031 54.96875 -42.09375 C 57.457031 -37.976562 58.703125 -33.273438 58.703125 -27.984375 C 58.703125 -22.421875 57.484375 -17.523438 55.046875 -13.296875 C 52.617188 -9.078125 49.171875 -5.804688 44.703125 -3.484375 C 40.242188 -1.160156 35.070312 0 29.1875 0 L 5.21875 0 Z M 28.390625 -14.4375 C 32.398438 -14.4375 35.457031 -15.703125 37.5625 -18.234375 C 39.675781 -20.773438 40.734375 -24.078125 40.734375 -28.140625 C 40.734375 -31.992188 39.703125 -35.054688 37.640625 -37.328125 C 35.585938 -39.597656 32.503906 -40.734375 28.390625 -40.734375 L 22.9375 -40.734375 L 22.9375 -14.4375 Z M 28.390625 -14.4375 "/></g></g></g><g fill="#3d9ae2" fill-opacity="1"><g transform="translate(216.770726, 125.077449)"><g><path d="M 32 1.28125 C 26.21875 1.28125 21.09375 0.0507812 16.625 -2.40625 C 12.164062 -4.863281 8.691406 -8.269531 6.203125 -12.625 C 3.722656 -16.988281 2.484375 -21.945312 2.484375 -27.5 C 2.484375 -33.113281 3.722656 -38.113281 6.203125 -42.5 C 8.691406 -46.882812 12.164062 -50.289062 16.625 -52.71875 C 21.09375 -55.15625 26.21875 -56.375 32 -56.375 C 37.769531 -56.375 42.882812 -55.15625 47.34375 -52.71875 C 51.8125 -50.289062 55.285156 -46.894531 57.765625 -42.53125 C 60.253906 -38.175781 61.5 -33.164062 61.5 -27.5 C 61.5 -21.945312 60.253906 -16.988281 57.765625 -12.625 C 55.285156 -8.269531 51.800781 -4.863281 47.3125 -2.40625 C 42.820312 0.0507812 37.71875 1.28125 32 1.28125 Z M 32 -13.3125 C 35.363281 -13.3125 38.128906 -14.617188 40.296875 -17.234375 C 42.460938 -19.859375 43.546875 -23.304688 43.546875 -27.578125 C 43.546875 -30.410156 43.050781 -32.9375 42.0625 -35.15625 C 41.070312 -37.375 39.691406 -39.113281 37.921875 -40.375 C 36.160156 -41.632812 34.160156 -42.265625 31.921875 -42.265625 C 29.722656 -42.265625 27.738281 -41.632812 25.96875 -40.375 C 24.207031 -39.113281 22.847656 -37.375 21.890625 -35.15625 C 20.929688 -32.9375 20.453125 -30.410156 20.453125 -27.578125 C 20.453125 -23.304688 21.519531 -19.859375 23.65625 -17.234375 C 25.789062 -14.617188 28.570312 -13.3125 32 -13.3125 Z M 32 -13.3125 "/></g></g></g><g fill="#3d9ae2" fill-opacity="1"><g transform="translate(280.759994, 125.077449)"><g><path d="M 22.296875 1.28125 C 14.753906 1.28125 8.390625 -0.109375 3.203125 -2.890625 L 7.21875 -15.3125 C 12.71875 -13.332031 17.632812 -12.34375 21.96875 -12.34375 C 24.320312 -12.34375 26.046875 -12.625 27.140625 -13.1875 C 28.234375 -13.75 28.78125 -14.59375 28.78125 -15.71875 C 28.78125 -16.46875 28.484375 -17.117188 27.890625 -17.671875 C 27.304688 -18.234375 26.132812 -18.863281 24.375 -19.5625 C 22.613281 -20.257812 19.96875 -21.113281 16.4375 -22.125 C 12.101562 -23.414062 8.734375 -25.515625 6.328125 -28.421875 C 3.921875 -31.335938 2.71875 -34.691406 2.71875 -38.484375 C 2.71875 -44.367188 4.65625 -48.820312 8.53125 -51.84375 C 12.414062 -54.863281 17.644531 -56.375 24.21875 -56.375 C 27.632812 -56.375 31 -56.007812 34.3125 -55.28125 C 37.632812 -54.5625 40.578125 -53.507812 43.140625 -52.125 L 38.8125 -40.015625 C 35.8125 -41.023438 33.203125 -41.757812 30.984375 -42.21875 C 28.773438 -42.675781 26.625 -42.90625 24.53125 -42.90625 C 21.007812 -42.90625 19.25 -41.941406 19.25 -40.015625 C 19.25 -39.046875 19.820312 -38.226562 20.96875 -37.5625 C 22.113281 -36.894531 24.476562 -36.054688 28.0625 -35.046875 C 33.675781 -33.546875 37.925781 -31.257812 40.8125 -28.1875 C 43.695312 -25.113281 45.140625 -21.4375 45.140625 -17.15625 C 45.140625 -11.226562 43.210938 -6.671875 39.359375 -3.484375 C 35.515625 -0.304688 29.828125 1.28125 22.296875 1.28125 Z M 22.296875 1.28125 "/></g></g></g><g fill="#3d9ae2" fill-opacity="1"><g transform="translate(328.230744, 125.077449)"><g><path d="M 13.796875 -42.984375 L 2.328125 -42.984375 L 2.328125 -55.171875 L 43.9375 -55.171875 L 43.9375 -42.984375 L 32.46875 -42.984375 L 32.46875 0 L 13.796875 0 Z M 13.796875 -42.984375 "/></g></g></g></svg>