<svg xmlns="http://www.w3.org/2000/svg" xmlns:xlink="http://www.w3.org/1999/xlink" width="500" zoomAndPan="magnify" viewBox="0 0 375 374.999991" height="500" preserveAspectRatio="xMidYMid meet" version="1.0"><defs><clipPath id="317a2e5144"><path d="M 3.046875 0 L 371 0 L 371 375 L 3.046875 375 Z M 3.046875 0 " clip-rule="nonzero"/></clipPath></defs><path fill="#bddbff" d="M 55.851562 187.5 L 71.496094 187.5 L 71.496094 81.742188 L 34.160156 81.742188 C 33.34375 81.742188 32.53125 81.78125 31.71875 81.863281 C 30.910156 81.941406 30.105469 82.0625 29.304688 82.222656 C 28.503906 82.378906 27.714844 82.578125 26.933594 82.8125 C 26.15625 83.050781 25.386719 83.324219 24.632812 83.636719 C 23.882812 83.949219 23.144531 84.296875 22.425781 84.679688 C 21.707031 85.066406 21.007812 85.484375 20.332031 85.9375 C 19.652344 86.390625 19 86.875 18.371094 87.390625 C 17.738281 87.90625 17.136719 88.453125 16.558594 89.03125 C 15.984375 89.605469 15.4375 90.210938 14.917969 90.839844 C 14.402344 91.46875 13.917969 92.125 13.464844 92.800781 C 13.011719 93.480469 12.59375 94.179688 12.207031 94.898438 C 11.824219 95.617188 11.476562 96.351562 11.164062 97.105469 C 10.851562 97.855469 10.578125 98.625 10.339844 99.402344 C 10.105469 100.183594 9.90625 100.972656 9.746094 101.773438 C 9.589844 102.570312 9.46875 103.375 9.390625 104.1875 C 9.308594 105 9.269531 105.8125 9.269531 106.625 L 9.269531 367.910156 L 31.199219 208.980469 C 31.300781 208.246094 31.433594 207.515625 31.601562 206.789062 C 31.769531 206.066406 31.96875 205.347656 32.199219 204.640625 C 32.429688 203.933594 32.691406 203.242188 32.988281 202.558594 C 33.28125 201.875 33.605469 201.207031 33.957031 200.550781 C 34.3125 199.898438 34.695312 199.261719 35.105469 198.640625 C 35.515625 198.019531 35.953125 197.417969 36.417969 196.839844 C 36.882812 196.257812 37.371094 195.699219 37.886719 195.164062 C 38.402344 194.625 38.941406 194.113281 39.5 193.625 C 40.0625 193.136719 40.644531 192.671875 41.246094 192.238281 C 41.847656 191.800781 42.46875 191.390625 43.105469 191.011719 C 43.746094 190.628906 44.402344 190.277344 45.070312 189.957031 C 45.742188 189.632812 46.425781 189.34375 47.121094 189.082031 C 47.816406 188.820312 48.523438 188.589844 49.242188 188.394531 C 49.960938 188.195312 50.683594 188.03125 51.414062 187.898438 C 52.148438 187.765625 52.882812 187.667969 53.625 187.601562 C 54.367188 187.535156 55.109375 187.5 55.851562 187.5 Z M 55.851562 187.5 " fill-opacity="1" fill-rule="nonzero"/><path fill="#bddbff" d="M 270.617188 81.742188 L 332.84375 81.742188 L 258.171875 7.089844 L 258.171875 69.300781 C 258.171875 70.117188 258.253906 70.925781 258.414062 71.726562 C 258.570312 72.527344 258.808594 73.308594 259.121094 74.0625 C 259.433594 74.816406 259.816406 75.535156 260.269531 76.214844 C 260.726562 76.890625 261.242188 77.519531 261.820312 78.097656 C 262.394531 78.675781 263.023438 79.191406 263.703125 79.644531 C 264.382812 80.101562 265.101562 80.484375 265.855469 80.796875 C 266.609375 81.109375 267.390625 81.34375 268.191406 81.503906 C 268.992188 81.664062 269.800781 81.742188 270.617188 81.742188 Z M 270.617188 81.742188 " fill-opacity="1" fill-rule="nonzero"/><path fill="#bddbff" d="M 363.988281 217.421875 C 364.175781 216.519531 364.3125 215.613281 364.398438 214.695312 C 364.480469 213.777344 364.515625 212.859375 364.5 211.9375 C 364.484375 211.015625 364.417969 210.101562 364.296875 209.1875 C 364.179688 208.273438 364.011719 207.371094 363.792969 206.476562 C 363.574219 205.582031 363.304688 204.699219 362.988281 203.835938 C 362.671875 202.96875 362.308594 202.125 361.898438 201.300781 C 361.488281 200.476562 361.035156 199.675781 360.535156 198.902344 C 360.035156 198.128906 359.496094 197.386719 358.914062 196.671875 C 358.332031 195.957031 357.714844 195.277344 357.054688 194.632812 C 356.398438 193.984375 355.707031 193.378906 354.984375 192.8125 C 354.257812 192.242188 353.503906 191.714844 352.722656 191.230469 C 351.9375 190.746094 351.132812 190.304688 350.300781 189.910156 C 349.46875 189.515625 348.617188 189.167969 347.746094 188.863281 C 346.875 188.5625 345.988281 188.3125 345.089844 188.109375 C 344.191406 187.90625 343.285156 187.753906 342.371094 187.652344 C 341.453125 187.550781 340.535156 187.5 339.613281 187.5 L 55.863281 187.5 C 55.121094 187.5 54.378906 187.535156 53.636719 187.601562 C 52.894531 187.667969 52.160156 187.765625 51.429688 187.898438 C 50.695312 188.03125 49.972656 188.195312 49.253906 188.394531 C 48.539062 188.589844 47.832031 188.820312 47.132812 189.082031 C 46.4375 189.34375 45.753906 189.632812 45.082031 189.957031 C 44.414062 190.277344 43.757812 190.628906 43.121094 191.011719 C 42.480469 191.390625 41.859375 191.800781 41.257812 192.238281 C 40.65625 192.671875 40.074219 193.136719 39.511719 193.625 C 38.953125 194.113281 38.414062 194.625 37.898438 195.164062 C 37.386719 195.699219 36.894531 196.257812 36.429688 196.839844 C 35.964844 197.417969 35.527344 198.019531 35.117188 198.640625 C 34.707031 199.261719 34.324219 199.898438 33.972656 200.550781 C 33.617188 201.207031 33.292969 201.875 33 202.558594 C 32.707031 203.242188 32.441406 203.933594 32.210938 204.640625 C 31.980469 205.347656 31.78125 206.066406 31.613281 206.789062 C 31.445312 207.515625 31.3125 208.246094 31.210938 208.980469 L 9.269531 367.910156 L 332.84375 367.910156 Z M 363.988281 217.421875 " fill-opacity="1" fill-rule="nonzero"/><path fill="#bddbff" d="M 208.390625 94.183594 C 208.394531 95.816406 208.3125 97.441406 208.152344 99.0625 C 207.992188 100.683594 207.753906 102.296875 207.4375 103.894531 C 207.117188 105.492188 206.722656 107.070312 206.25 108.632812 C 205.777344 110.191406 205.226562 111.722656 204.601562 113.230469 C 203.980469 114.734375 203.28125 116.207031 202.515625 117.644531 C 201.746094 119.082031 200.910156 120.480469 200.003906 121.835938 C 199.097656 123.191406 198.128906 124.496094 197.09375 125.757812 C 196.058594 127.015625 194.964844 128.222656 193.8125 129.375 C 192.660156 130.527344 191.453125 131.621094 190.191406 132.65625 C 188.933594 133.691406 187.625 134.660156 186.269531 135.566406 C 184.914062 136.472656 183.515625 137.308594 182.078125 138.078125 C 180.640625 138.84375 179.167969 139.539062 177.660156 140.164062 C 176.15625 140.789062 174.621094 141.335938 173.0625 141.808594 C 171.503906 142.28125 169.921875 142.679688 168.324219 142.996094 C 166.722656 143.316406 165.113281 143.554688 163.492188 143.714844 C 161.867188 143.871094 160.242188 143.953125 158.613281 143.953125 C 156.980469 143.953125 155.355469 143.871094 153.734375 143.714844 C 152.109375 143.554688 150.5 143.316406 148.898438 142.996094 C 147.300781 142.679688 145.722656 142.28125 144.160156 141.808594 C 142.601562 141.335938 141.066406 140.789062 139.5625 140.164062 C 138.054688 139.539062 136.582031 138.84375 135.144531 138.078125 C 133.707031 137.308594 132.3125 136.472656 130.953125 135.566406 C 129.597656 134.660156 128.292969 133.691406 127.03125 132.65625 C 125.769531 131.621094 124.5625 130.527344 123.410156 129.375 C 122.257812 128.222656 121.164062 127.015625 120.128906 125.757812 C 119.097656 124.496094 118.125 123.191406 117.21875 121.835938 C 116.316406 120.480469 115.476562 119.082031 114.710938 117.644531 C 113.941406 116.207031 113.246094 114.734375 112.621094 113.230469 C 111.996094 111.722656 111.449219 110.191406 110.972656 108.632812 C 110.5 107.070312 110.105469 105.492188 109.789062 103.894531 C 109.46875 102.296875 109.230469 100.683594 109.070312 99.0625 C 108.910156 97.441406 108.832031 95.816406 108.832031 94.183594 C 108.832031 92.554688 108.910156 90.929688 109.070312 89.304688 C 109.230469 87.683594 109.46875 86.074219 109.789062 84.476562 C 110.105469 82.875 110.5 81.296875 110.972656 79.738281 C 111.449219 78.179688 111.996094 76.644531 112.621094 75.140625 C 113.246094 73.632812 113.941406 72.160156 114.710938 70.722656 C 115.476562 69.285156 116.316406 67.890625 117.21875 66.535156 C 118.125 65.179688 119.097656 63.871094 120.128906 62.613281 C 121.164062 61.351562 122.257812 60.144531 123.410156 58.992188 C 124.5625 57.839844 125.769531 56.746094 127.03125 55.714844 C 128.292969 54.679688 129.597656 53.710938 130.953125 52.804688 C 132.3125 51.898438 133.707031 51.0625 135.144531 50.292969 C 136.582031 49.523438 138.054688 48.828125 139.5625 48.203125 C 141.066406 47.582031 142.601562 47.03125 144.160156 46.558594 C 145.722656 46.085938 147.300781 45.691406 148.898438 45.371094 C 150.5 45.054688 152.109375 44.816406 153.734375 44.65625 C 155.355469 44.496094 156.980469 44.417969 158.613281 44.417969 C 160.242188 44.417969 161.867188 44.496094 163.492188 44.65625 C 165.113281 44.816406 166.722656 45.054688 168.324219 45.371094 C 169.921875 45.691406 171.503906 46.085938 173.0625 46.558594 C 174.621094 47.03125 176.15625 47.582031 177.660156 48.203125 C 179.167969 48.828125 180.640625 49.523438 182.078125 50.292969 C 183.515625 51.0625 184.914062 51.898438 186.269531 52.804688 C 187.625 53.710938 188.933594 54.679688 190.191406 55.714844 C 191.453125 56.746094 192.660156 57.839844 193.8125 58.992188 C 194.964844 60.144531 196.058594 61.351562 197.09375 62.613281 C 198.128906 63.871094 199.097656 65.179688 200.003906 66.535156 C 200.910156 67.890625 201.746094 69.285156 202.515625 70.722656 C 203.28125 72.160156 203.980469 73.632812 204.601562 75.140625 C 205.226562 76.644531 205.777344 78.179688 206.25 79.738281 C 206.722656 81.296875 207.117188 82.875 207.4375 84.476562 C 207.753906 86.074219 207.992188 87.683594 208.152344 89.304688 C 208.3125 90.929688 208.394531 92.554688 208.390625 94.183594 Z M 208.390625 94.183594 " fill-opacity="1" fill-rule="nonzero"/><g clip-path="url(#317a2e5144)"><path fill="#3d9ae2" d="M 363.738281 192.746094 C 362.285156 190.949219 360.648438 189.339844 358.832031 187.910156 C 357.015625 186.484375 355.0625 185.273438 352.976562 184.28125 C 350.886719 183.289062 348.71875 182.539062 346.464844 182.03125 C 344.207031 181.527344 341.925781 181.273438 339.613281 181.277344 L 339.066406 181.277344 L 339.066406 81.742188 C 339.066406 81.605469 339 81.488281 338.984375 81.351562 C 338.953125 80.804688 338.847656 80.269531 338.667969 79.753906 C 338.601562 79.554688 338.550781 79.359375 338.464844 79.167969 C 338.15625 78.484375 337.742188 77.878906 337.21875 77.34375 L 262.546875 2.691406 C 262.015625 2.164062 261.40625 1.75 260.71875 1.449219 C 260.53125 1.359375 260.34375 1.3125 260.152344 1.242188 C 259.625 1.058594 259.082031 0.953125 258.523438 0.917969 C 258.414062 0.9375 258.304688 0.871094 258.171875 0.871094 L 96.386719 0.871094 C 95.367188 0.871094 94.351562 0.921875 93.335938 1.023438 C 92.324219 1.125 91.316406 1.273438 90.320312 1.472656 C 89.320312 1.671875 88.332031 1.921875 87.359375 2.21875 C 86.382812 2.511719 85.425781 2.855469 84.484375 3.246094 C 83.542969 3.636719 82.625 4.074219 81.726562 4.554688 C 80.828125 5.035156 79.957031 5.558594 79.109375 6.125 C 78.261719 6.6875 77.445312 7.296875 76.65625 7.941406 C 75.871094 8.585938 75.117188 9.269531 74.398438 9.992188 C 73.675781 10.710938 72.992188 11.464844 72.347656 12.25 C 71.699219 13.039062 71.09375 13.855469 70.527344 14.703125 C 69.960938 15.550781 69.4375 16.421875 68.957031 17.320312 C 68.476562 18.21875 68.042969 19.136719 67.652344 20.078125 C 67.261719 21.019531 66.917969 21.976562 66.621094 22.949219 C 66.324219 23.921875 66.078125 24.910156 65.875 25.910156 C 65.675781 26.90625 65.527344 27.914062 65.425781 28.925781 C 65.324219 29.941406 65.273438 30.957031 65.273438 31.972656 L 65.273438 75.523438 L 34.160156 75.523438 C 33.140625 75.523438 32.125 75.574219 31.113281 75.675781 C 30.097656 75.777344 29.089844 75.925781 28.09375 76.125 C 27.09375 76.324219 26.105469 76.574219 25.132812 76.871094 C 24.15625 77.164062 23.199219 77.507812 22.257812 77.898438 C 21.316406 78.289062 20.398438 78.726562 19.5 79.207031 C 18.601562 79.6875 17.730469 80.210938 16.882812 80.773438 C 16.035156 81.339844 15.21875 81.949219 14.433594 82.59375 C 13.644531 83.238281 12.890625 83.921875 12.171875 84.644531 C 11.449219 85.363281 10.765625 86.117188 10.121094 86.902344 C 9.472656 87.691406 8.867188 88.507812 8.300781 89.355469 C 7.734375 90.199219 7.210938 91.074219 6.730469 91.972656 C 6.25 92.871094 5.816406 93.789062 5.425781 94.730469 C 5.035156 95.667969 4.691406 96.628906 4.394531 97.601562 C 4.097656 98.574219 3.851562 99.5625 3.652344 100.5625 C 3.453125 101.558594 3.300781 102.566406 3.199219 103.578125 C 3.097656 104.59375 3.046875 105.609375 3.046875 106.625 L 3.046875 367.910156 L 3.171875 367.910156 C 3.128906 369.449219 3.597656 370.8125 4.578125 371.996094 C 5.167969 372.675781 5.875 373.199219 6.691406 373.570312 C 7.511719 373.945312 8.371094 374.128906 9.269531 374.128906 L 332.84375 374.128906 C 333.5625 374.128906 334.257812 374.007812 334.933594 373.769531 C 335.605469 373.527344 336.222656 373.179688 336.777344 372.726562 C 337.332031 372.273438 337.792969 371.738281 338.164062 371.125 C 338.535156 370.511719 338.792969 369.855469 338.9375 369.152344 L 370.082031 218.667969 C 370.550781 216.40625 370.769531 214.121094 370.726562 211.816406 C 370.6875 209.507812 370.394531 207.230469 369.847656 204.988281 C 369.296875 202.746094 368.507812 200.589844 367.476562 198.523438 C 366.445312 196.457031 365.199219 194.53125 363.738281 192.746094 Z M 317.824219 75.523438 L 270.617188 75.523438 C 270.210938 75.523438 269.804688 75.480469 269.40625 75.402344 C 269.003906 75.324219 268.613281 75.203125 268.238281 75.046875 C 267.859375 74.890625 267.5 74.699219 267.160156 74.472656 C 266.820312 74.246094 266.507812 73.988281 266.21875 73.699219 C 265.929688 73.410156 265.671875 73.097656 265.445312 72.757812 C 265.21875 72.417969 265.027344 72.058594 264.871094 71.679688 C 264.714844 71.304688 264.59375 70.914062 264.515625 70.515625 C 264.4375 70.113281 264.394531 69.710938 264.394531 69.300781 L 264.394531 22.109375 Z M 77.71875 31.972656 C 77.71875 31.363281 77.746094 30.753906 77.808594 30.144531 C 77.867188 29.535156 77.957031 28.933594 78.078125 28.332031 C 78.195312 27.734375 78.34375 27.140625 78.523438 26.558594 C 78.699219 25.972656 78.90625 25.398438 79.140625 24.832031 C 79.371094 24.269531 79.632812 23.714844 79.921875 23.175781 C 80.210938 22.636719 80.523438 22.113281 80.863281 21.605469 C 81.203125 21.097656 81.566406 20.605469 81.957031 20.136719 C 82.34375 19.664062 82.753906 19.210938 83.1875 18.777344 C 83.617188 18.34375 84.070312 17.9375 84.542969 17.546875 C 85.015625 17.160156 85.507812 16.796875 86.015625 16.457031 C 86.523438 16.117188 87.046875 15.804688 87.585938 15.515625 C 88.125 15.226562 88.675781 14.964844 89.242188 14.730469 C 89.808594 14.5 90.382812 14.292969 90.96875 14.113281 C 91.550781 13.9375 92.144531 13.789062 92.742188 13.671875 C 93.34375 13.550781 93.949219 13.460938 94.554688 13.402344 C 95.164062 13.339844 95.773438 13.3125 96.386719 13.3125 L 251.949219 13.3125 L 251.949219 69.300781 C 251.949219 69.910156 251.980469 70.523438 252.039062 71.128906 C 252.101562 71.738281 252.191406 72.34375 252.308594 72.941406 C 252.429688 73.542969 252.578125 74.132812 252.753906 74.71875 C 252.933594 75.304688 253.136719 75.878906 253.371094 76.441406 C 253.605469 77.007812 253.867188 77.558594 254.15625 78.097656 C 254.441406 78.636719 254.757812 79.160156 255.097656 79.667969 C 255.4375 80.175781 255.800781 80.667969 256.1875 81.140625 C 256.574219 81.613281 256.984375 82.066406 257.417969 82.496094 C 257.851562 82.929688 258.304688 83.339844 258.777344 83.726562 C 259.25 84.113281 259.738281 84.480469 260.246094 84.820312 C 260.753906 85.15625 261.28125 85.472656 261.820312 85.761719 C 262.359375 86.046875 262.910156 86.308594 263.476562 86.542969 C 264.039062 86.777344 264.613281 86.984375 265.199219 87.160156 C 265.785156 87.335938 266.378906 87.484375 266.976562 87.605469 C 267.578125 87.722656 268.179688 87.8125 268.789062 87.875 C 269.398438 87.933594 270.007812 87.964844 270.617188 87.964844 L 326.621094 87.964844 L 326.621094 181.277344 L 77.71875 181.277344 Z M 34.160156 87.964844 L 65.273438 87.964844 L 65.273438 181.277344 L 55.851562 181.277344 C 54.921875 181.28125 53.996094 181.328125 53.070312 181.414062 C 52.144531 181.5 51.226562 181.625 50.3125 181.792969 C 49.398438 181.960938 48.492188 182.171875 47.597656 182.417969 C 46.703125 182.667969 45.820312 182.957031 44.953125 183.285156 C 44.082031 183.613281 43.230469 183.976562 42.390625 184.378906 C 41.554688 184.785156 40.738281 185.222656 39.941406 185.699219 C 39.144531 186.175781 38.367188 186.6875 37.617188 187.234375 C 36.863281 187.777344 36.136719 188.355469 35.4375 188.96875 C 34.738281 189.578125 34.066406 190.21875 33.421875 190.886719 C 32.777344 191.558594 32.167969 192.257812 31.585938 192.980469 C 31.003906 193.707031 30.457031 194.453125 29.941406 195.230469 C 29.429688 196.003906 28.949219 196.796875 28.507812 197.613281 C 28.0625 198.429688 27.65625 199.265625 27.289062 200.117188 C 26.921875 200.96875 26.589844 201.835938 26.296875 202.71875 C 26.007812 203.601562 25.753906 204.496094 25.542969 205.398438 C 25.332031 206.304688 25.160156 207.214844 25.03125 208.136719 L 15.492188 277.269531 L 15.492188 106.625 C 15.492188 106.015625 15.523438 105.40625 15.582031 104.796875 C 15.640625 104.1875 15.730469 103.585938 15.851562 102.984375 C 15.96875 102.386719 16.117188 101.792969 16.296875 101.210938 C 16.472656 100.625 16.679688 100.050781 16.914062 99.484375 C 17.148438 98.921875 17.40625 98.367188 17.695312 97.828125 C 17.984375 97.289062 18.296875 96.765625 18.636719 96.257812 C 18.976562 95.75 19.339844 95.257812 19.730469 94.785156 C 20.117188 94.316406 20.527344 93.863281 20.960938 93.429688 C 21.390625 92.996094 21.84375 92.585938 22.316406 92.199219 C 22.789062 91.8125 23.28125 91.449219 23.789062 91.109375 C 24.296875 90.769531 24.820312 90.457031 25.359375 90.167969 C 25.898438 89.878906 26.449219 89.617188 27.015625 89.382812 C 27.582031 89.152344 28.15625 88.945312 28.742188 88.765625 C 29.324219 88.589844 29.917969 88.441406 30.519531 88.324219 C 31.117188 88.203125 31.722656 88.113281 32.332031 88.054688 C 32.9375 87.992188 33.546875 87.964844 34.160156 87.964844 Z M 357.890625 216.167969 L 327.777344 361.6875 L 16.40625 361.6875 L 37.359375 209.832031 C 37.515625 208.726562 37.769531 207.644531 38.121094 206.585938 C 38.46875 205.523438 38.910156 204.503906 39.445312 203.519531 C 39.976562 202.539062 40.59375 201.613281 41.292969 200.742188 C 41.992188 199.871094 42.761719 199.066406 43.601562 198.332031 C 44.445312 197.601562 45.347656 196.945312 46.304688 196.375 C 47.265625 195.800781 48.265625 195.316406 49.3125 194.925781 C 50.355469 194.53125 51.429688 194.234375 52.527344 194.03125 C 53.625 193.828125 54.734375 193.726562 55.851562 193.722656 L 339.601562 193.722656 C 340.292969 193.722656 340.980469 193.757812 341.667969 193.835938 C 342.355469 193.914062 343.035156 194.027344 343.710938 194.179688 C 344.382812 194.332031 345.046875 194.519531 345.699219 194.746094 C 346.351562 194.972656 346.992188 195.234375 347.613281 195.53125 C 348.238281 195.828125 348.84375 196.15625 349.429688 196.519531 C 350.019531 196.882812 350.585938 197.28125 351.128906 197.707031 C 351.671875 198.132812 352.1875 198.589844 352.683594 199.074219 C 353.175781 199.554688 353.640625 200.066406 354.074219 200.601562 C 354.511719 201.136719 354.917969 201.695312 355.289062 202.277344 C 355.664062 202.855469 356.003906 203.457031 356.3125 204.074219 C 356.621094 204.695312 356.894531 205.328125 357.128906 205.976562 C 357.367188 206.625 357.566406 207.285156 357.730469 207.957031 C 357.894531 208.625 358.023438 209.304688 358.109375 209.988281 C 358.199219 210.675781 358.25 211.363281 358.261719 212.054688 C 358.273438 212.742188 358.25 213.433594 358.183594 214.121094 C 358.121094 214.808594 358.019531 215.488281 357.878906 216.167969 Z M 357.890625 216.167969 " fill-opacity="1" fill-rule="nonzero"/></g><path fill="#3d9ae2" d="M 158.613281 75.523438 C 159.019531 75.523438 159.425781 75.5625 159.824219 75.640625 C 160.226562 75.722656 160.617188 75.839844 160.992188 75.996094 C 161.371094 76.152344 161.730469 76.34375 162.070312 76.570312 C 162.410156 76.796875 162.722656 77.054688 163.011719 77.34375 C 163.300781 77.632812 163.558594 77.945312 163.785156 78.285156 C 164.011719 78.625 164.203125 78.984375 164.359375 79.363281 C 164.515625 79.738281 164.636719 80.128906 164.714844 80.527344 C 164.792969 80.929688 164.835938 81.335938 164.835938 81.742188 L 177.28125 81.742188 C 177.277344 80.785156 177.199219 79.835938 177.046875 78.894531 C 176.898438 77.949219 176.675781 77.023438 176.386719 76.113281 C 176.09375 75.203125 175.730469 74.320312 175.304688 73.464844 C 174.875 72.609375 174.386719 71.792969 173.832031 71.011719 C 173.277344 70.234375 172.667969 69.5 172 68.816406 C 171.335938 68.128906 170.621094 67.5 169.859375 66.921875 C 169.09375 66.347656 168.292969 65.832031 167.449219 65.382812 C 166.609375 64.929688 165.734375 64.542969 164.835938 64.222656 L 164.835938 56.859375 L 152.390625 56.859375 L 152.390625 64.222656 C 151.488281 64.542969 150.617188 64.929688 149.773438 65.382812 C 148.929688 65.832031 148.128906 66.347656 147.367188 66.921875 C 146.601562 67.5 145.886719 68.128906 145.222656 68.816406 C 144.554688 69.5 143.945312 70.234375 143.390625 71.011719 C 142.839844 71.792969 142.347656 72.609375 141.917969 73.464844 C 141.492188 74.320312 141.132812 75.203125 140.839844 76.113281 C 140.546875 77.023438 140.324219 77.949219 140.175781 78.894531 C 140.023438 79.835938 139.949219 80.785156 139.945312 81.742188 C 139.945312 91.808594 149.128906 96.398438 155.832031 99.753906 C 161.101562 102.382812 164.835938 104.425781 164.835938 106.625 C 164.835938 107.035156 164.792969 107.441406 164.714844 107.839844 C 164.636719 108.242188 164.515625 108.628906 164.359375 109.007812 C 164.203125 109.386719 164.011719 109.742188 163.785156 110.082031 C 163.558594 110.421875 163.300781 110.738281 163.011719 111.027344 C 162.722656 111.316406 162.410156 111.574219 162.070312 111.800781 C 161.730469 112.027344 161.371094 112.21875 160.992188 112.375 C 160.617188 112.53125 160.226562 112.648438 159.824219 112.726562 C 159.425781 112.808594 159.019531 112.847656 158.613281 112.847656 C 158.203125 112.847656 157.796875 112.808594 157.398438 112.726562 C 156.996094 112.648438 156.609375 112.53125 156.230469 112.375 C 155.851562 112.21875 155.496094 112.027344 155.15625 111.800781 C 154.816406 111.574219 154.5 111.316406 154.210938 111.027344 C 153.921875 110.738281 153.664062 110.421875 153.4375 110.082031 C 153.210938 109.742188 153.019531 109.386719 152.863281 109.007812 C 152.707031 108.628906 152.589844 108.242188 152.507812 107.839844 C 152.429688 107.441406 152.390625 107.035156 152.390625 106.625 L 139.945312 106.625 C 139.949219 107.582031 140.023438 108.53125 140.175781 109.476562 C 140.324219 110.421875 140.546875 111.347656 140.839844 112.257812 C 141.132812 113.167969 141.492188 114.050781 141.917969 114.90625 C 142.347656 115.761719 142.839844 116.578125 143.390625 117.355469 C 143.945312 118.136719 144.554688 118.867188 145.222656 119.554688 C 145.886719 120.238281 146.601562 120.871094 147.367188 121.445312 C 148.128906 122.023438 148.929688 122.535156 149.773438 122.988281 C 150.617188 123.441406 151.488281 123.828125 152.390625 124.144531 L 152.390625 131.511719 L 164.835938 131.511719 L 164.835938 124.144531 C 165.734375 123.828125 166.609375 123.441406 167.449219 122.988281 C 168.292969 122.535156 169.09375 122.023438 169.859375 121.445312 C 170.621094 120.871094 171.335938 120.238281 172 119.554688 C 172.667969 118.867188 173.277344 118.136719 173.832031 117.355469 C 174.386719 116.578125 174.875 115.761719 175.304688 114.90625 C 175.730469 114.050781 176.09375 113.167969 176.386719 112.257812 C 176.675781 111.347656 176.898438 110.421875 177.046875 109.476562 C 177.199219 108.53125 177.277344 107.582031 177.28125 106.625 C 177.28125 96.5625 168.09375 91.96875 161.394531 88.617188 C 156.121094 85.984375 152.390625 83.945312 152.390625 81.742188 C 152.390625 81.335938 152.429688 80.929688 152.507812 80.527344 C 152.589844 80.128906 152.707031 79.738281 152.863281 79.363281 C 153.019531 78.984375 153.210938 78.625 153.4375 78.285156 C 153.664062 77.945312 153.921875 77.632812 154.210938 77.34375 C 154.5 77.054688 154.816406 76.796875 155.15625 76.570312 C 155.496094 76.34375 155.851562 76.152344 156.230469 75.996094 C 156.609375 75.839844 156.996094 75.722656 157.398438 75.640625 C 157.796875 75.5625 158.203125 75.523438 158.613281 75.523438 Z M 158.613281 75.523438 " fill-opacity="1" fill-rule="nonzero"/><path fill="#3d9ae2" d="M 158.613281 38.195312 C 156.777344 38.195312 154.949219 38.285156 153.121094 38.464844 C 151.296875 38.644531 149.484375 38.914062 147.6875 39.269531 C 145.886719 39.628906 144.109375 40.074219 142.355469 40.605469 C 140.601562 41.140625 138.875 41.753906 137.179688 42.457031 C 135.484375 43.160156 133.828125 43.941406 132.210938 44.808594 C 130.59375 45.671875 129.023438 46.613281 127.496094 47.632812 C 125.972656 48.648438 124.5 49.742188 123.082031 50.90625 C 121.664062 52.066406 120.308594 53.296875 119.011719 54.59375 C 117.714844 55.890625 116.484375 57.25 115.320312 58.664062 C 114.15625 60.082031 113.066406 61.554688 112.046875 63.078125 C 111.027344 64.605469 110.085938 66.175781 109.222656 67.792969 C 108.355469 69.410156 107.574219 71.066406 106.871094 72.757812 C 106.167969 74.453125 105.550781 76.175781 105.019531 77.933594 C 104.488281 79.6875 104.042969 81.464844 103.683594 83.261719 C 103.328125 85.058594 103.058594 86.871094 102.878906 88.695312 C 102.699219 90.523438 102.609375 92.351562 102.609375 94.183594 C 102.609375 96.019531 102.699219 97.847656 102.878906 99.671875 C 103.058594 101.496094 103.328125 103.308594 103.683594 105.109375 C 104.042969 106.90625 104.488281 108.683594 105.019531 110.4375 C 105.550781 112.191406 106.167969 113.917969 106.871094 115.609375 C 107.574219 117.304688 108.355469 118.960938 109.222656 120.578125 C 110.085938 122.195312 111.027344 123.765625 112.046875 125.289062 C 113.066406 126.816406 114.15625 128.285156 115.320312 129.703125 C 116.484375 131.121094 117.714844 132.476562 119.011719 133.773438 C 120.308594 135.070312 121.664062 136.300781 123.082031 137.464844 C 124.5 138.628906 125.972656 139.71875 127.496094 140.738281 C 129.023438 141.757812 130.59375 142.699219 132.210938 143.5625 C 133.828125 144.425781 135.484375 145.210938 137.179688 145.910156 C 138.875 146.613281 140.601562 147.230469 142.355469 147.761719 C 144.109375 148.296875 145.886719 148.742188 147.6875 149.097656 C 149.484375 149.457031 151.296875 149.722656 153.121094 149.902344 C 154.949219 150.085938 156.777344 150.175781 158.613281 150.175781 C 160.445312 150.175781 162.277344 150.085938 164.101562 149.902344 C 165.925781 149.722656 167.738281 149.457031 169.539062 149.097656 C 171.335938 148.742188 173.113281 148.296875 174.867188 147.761719 C 176.625 147.230469 178.347656 146.613281 180.042969 145.910156 C 181.738281 145.210938 183.394531 144.425781 185.011719 143.5625 C 186.628906 142.699219 188.199219 141.757812 189.726562 140.738281 C 191.25 139.71875 192.722656 138.628906 194.140625 137.464844 C 195.558594 136.300781 196.914062 135.070312 198.210938 133.773438 C 199.507812 132.476562 200.738281 131.121094 201.902344 129.703125 C 203.066406 128.285156 204.15625 126.816406 205.175781 125.289062 C 206.195312 123.765625 207.136719 122.195312 208.003906 120.578125 C 208.867188 118.960938 209.648438 117.304688 210.351562 115.609375 C 211.054688 113.917969 211.671875 112.191406 212.203125 110.4375 C 212.734375 108.683594 213.179688 106.90625 213.539062 105.109375 C 213.898438 103.308594 214.164062 101.496094 214.34375 99.671875 C 214.523438 97.847656 214.613281 96.019531 214.613281 94.183594 C 214.613281 92.351562 214.519531 90.523438 214.339844 88.699219 C 214.15625 86.875 213.886719 85.0625 213.527344 83.265625 C 213.167969 81.46875 212.722656 79.691406 212.1875 77.941406 C 211.65625 76.1875 211.035156 74.460938 210.332031 72.769531 C 209.632812 71.074219 208.847656 69.421875 207.980469 67.804688 C 207.117188 66.1875 206.175781 64.617188 205.15625 63.09375 C 204.136719 61.570312 203.046875 60.101562 201.882812 58.683594 C 200.71875 57.265625 199.488281 55.910156 198.191406 54.613281 C 196.894531 53.316406 195.539062 52.089844 194.121094 50.925781 C 192.703125 49.761719 191.234375 48.671875 189.710938 47.652344 C 188.183594 46.632812 186.613281 45.691406 185 44.828125 C 183.382812 43.960938 181.726562 43.179688 180.03125 42.476562 C 178.339844 41.773438 176.617188 41.15625 174.859375 40.621094 C 173.105469 40.089844 171.332031 39.640625 169.53125 39.28125 C 167.734375 38.921875 165.921875 38.652344 164.097656 38.472656 C 162.273438 38.289062 160.445312 38.199219 158.613281 38.195312 Z M 158.613281 137.730469 C 157.183594 137.730469 155.761719 137.660156 154.34375 137.523438 C 152.921875 137.382812 151.511719 137.171875 150.113281 136.894531 C 148.714844 136.617188 147.332031 136.269531 145.96875 135.855469 C 144.601562 135.441406 143.261719 134.960938 141.941406 134.417969 C 140.625 133.871094 139.335938 133.261719 138.078125 132.589844 C 136.820312 131.917969 135.597656 131.183594 134.414062 130.394531 C 133.226562 129.601562 132.082031 128.75 130.980469 127.847656 C 129.875 126.941406 128.820312 125.984375 127.8125 124.976562 C 126.804688 123.96875 125.847656 122.914062 124.941406 121.8125 C 124.035156 120.707031 123.1875 119.5625 122.394531 118.378906 C 121.601562 117.191406 120.871094 115.96875 120.195312 114.710938 C 119.523438 113.453125 118.914062 112.167969 118.371094 110.847656 C 117.824219 109.53125 117.34375 108.191406 116.929688 106.824219 C 116.515625 105.460938 116.167969 104.078125 115.890625 102.679688 C 115.613281 101.28125 115.402344 99.871094 115.261719 98.453125 C 115.125 97.035156 115.054688 95.609375 115.054688 94.183594 C 115.054688 92.757812 115.125 91.335938 115.261719 89.917969 C 115.402344 88.496094 115.613281 87.089844 115.890625 85.6875 C 116.167969 84.289062 116.515625 82.910156 116.929688 81.542969 C 117.34375 80.179688 117.824219 78.835938 118.371094 77.519531 C 118.914062 76.203125 119.523438 74.914062 120.195312 73.65625 C 120.871094 72.398438 121.601562 71.175781 122.394531 69.992188 C 123.1875 68.804688 124.035156 67.660156 124.941406 66.558594 C 125.847656 65.457031 126.804688 64.402344 127.8125 63.390625 C 128.820312 62.382812 129.875 61.425781 130.980469 60.523438 C 132.082031 59.617188 133.226562 58.769531 134.414062 57.976562 C 135.597656 57.183594 136.820312 56.453125 138.078125 55.78125 C 139.335938 55.105469 140.625 54.5 141.941406 53.953125 C 143.261719 53.40625 144.601562 52.925781 145.96875 52.511719 C 147.332031 52.097656 148.714844 51.753906 150.113281 51.472656 C 151.511719 51.195312 152.921875 50.988281 154.34375 50.847656 C 155.761719 50.707031 157.183594 50.636719 158.613281 50.636719 C 160.039062 50.636719 161.460938 50.707031 162.882812 50.847656 C 164.300781 50.988281 165.710938 51.195312 167.109375 51.472656 C 168.507812 51.753906 169.890625 52.097656 171.257812 52.511719 C 172.621094 52.925781 173.960938 53.40625 175.28125 53.953125 C 176.597656 54.5 177.886719 55.105469 179.144531 55.78125 C 180.402344 56.453125 181.625 57.183594 182.8125 57.976562 C 183.996094 58.769531 185.140625 59.617188 186.246094 60.523438 C 187.347656 61.425781 188.402344 62.382812 189.410156 63.390625 C 190.421875 64.402344 191.378906 65.457031 192.28125 66.558594 C 193.1875 67.660156 194.035156 68.804688 194.828125 69.992188 C 195.621094 71.175781 196.355469 72.398438 197.027344 73.65625 C 197.699219 74.914062 198.308594 76.203125 198.855469 77.519531 C 199.398438 78.835938 199.878906 80.179688 200.292969 81.542969 C 200.707031 82.910156 201.054688 84.289062 201.332031 85.6875 C 201.609375 87.089844 201.820312 88.496094 201.960938 89.917969 C 202.101562 91.335938 202.171875 92.757812 202.171875 94.183594 C 202.167969 95.609375 202.097656 97.03125 201.957031 98.453125 C 201.816406 99.871094 201.605469 101.277344 201.324219 102.675781 C 201.046875 104.074219 200.699219 105.457031 200.28125 106.820312 C 199.867188 108.183594 199.386719 109.523438 198.839844 110.839844 C 198.292969 112.160156 197.683594 113.445312 197.011719 114.703125 C 196.339844 115.960938 195.605469 117.179688 194.8125 118.367188 C 194.019531 119.550781 193.171875 120.695312 192.265625 121.796875 C 191.363281 122.898438 190.40625 123.953125 189.398438 124.960938 C 188.390625 125.972656 187.332031 126.925781 186.230469 127.832031 C 185.128906 128.738281 183.984375 129.585938 182.800781 130.378906 C 181.613281 131.171875 180.390625 131.902344 179.136719 132.574219 C 177.878906 133.246094 176.589844 133.855469 175.273438 134.402344 C 173.957031 134.949219 172.613281 135.429688 171.25 135.84375 C 169.886719 136.261719 168.503906 136.609375 167.105469 136.886719 C 165.707031 137.167969 164.296875 137.375 162.878906 137.519531 C 161.460938 137.660156 160.039062 137.730469 158.613281 137.730469 Z M 158.613281 137.730469 " fill-opacity="1" fill-rule="nonzero"/><path fill="#3d9ae2" d="M 227.058594 137.730469 L 239.503906 137.730469 L 239.503906 150.175781 L 227.058594 150.175781 Z M 227.058594 137.730469 " fill-opacity="1" fill-rule="nonzero"/><path fill="#3d9ae2" d="M 251.949219 137.730469 L 301.730469 137.730469 L 301.730469 150.175781 L 251.949219 150.175781 Z M 251.949219 137.730469 " fill-opacity="1" fill-rule="nonzero"/><path fill="#3d9ae2" d="M 227.058594 112.847656 L 264.394531 112.847656 L 264.394531 125.289062 L 227.058594 125.289062 Z M 227.058594 112.847656 " fill-opacity="1" fill-rule="nonzero"/><path fill="#3d9ae2" d="M 276.839844 112.847656 L 301.730469 112.847656 L 301.730469 125.289062 L 276.839844 125.289062 Z M 276.839844 112.847656 " fill-opacity="1" fill-rule="nonzero"/></svg>